<svg height="512" viewBox="0 0 64 64" width="512" xmlns="http://www.w3.org/2000/svg"><path d="m52 17h-2v-4a1 1 0 0 1 1-1h4v-3a1 1 0 0 1 1-1h6v2h-5v3a1 1 0 0 1 -1 1h-4z" fill="#32b1cc"/><path d="m25 21c-4.907 0-9.178 3.444-11 8l-9 22h39.838a10 10 0 0 1 9.162-6h3v-24zm18 16h-13a4 4 0 0 1 0-8h13a4 4 0 0 1 0 8z" fill="#e2e2d7"/><path d="m47 31h24a0 0 0 0 1 0 0v2a2 2 0 0 1 -2 2h-20a2 2 0 0 1 -2-2v-2a0 0 0 0 1 0 0z" fill="#2d75bb" transform="matrix(0 -1 1 0 26 92)"/><path d="m5 51v4h39a9.957 9.957 0 0 1 .838-4z" fill="#cfdfe8"/><path d="m43 25h-16.877a4 4 0 0 0 -3.88 3.03l-5.243 12.97h26a8 8 0 0 0 0-16zm0 12h-13a4 4 0 0 1 0-8h13a4 4 0 0 1 0 8z" fill="#7d8d9c"/><path d="m32 33h4v4h-4z" fill="#f9bb4b" transform="matrix(0 -1 1 0 -1 69)"/><path d="m36 33h4v4h-4z" fill="#ffd782" transform="matrix(0 -1 1 0 3 73)"/><path d="m54 45h-46.545l-2.455 6h39.838a10 10 0 0 1 9.162-6z" fill="#aabece"/><g fill="#f4f4e6"><path d="m11 48h2v3h-2z"/><path d="m17 48h2v3h-2z"/><path d="m21 48h2v3h-2z"/><path d="m28 48h2v3h-2z"/><path d="m32 48h2v3h-2z"/><path d="m39 48h2v3h-2z"/></g><path d="m52 40h2v2h-2z" fill="#5a6470"/><path d="m49 16h4v6h-4z" fill="#5a6470" transform="matrix(0 -1 1 0 32 70)"/><path d="m28 16h4v6h-4z" fill="#5a6470" transform="matrix(0 -1 1 0 11 49)"/></svg>